<svg xmlns="http://www.w3.org/2000/svg" viewBox="0 0 680 532" width="680" height="532" role="img" aria-label="Loop diagram of the monthly operational cycle: repository snapshot, new document detection, OCR or re-OCR, model scoring, and review pool update, repeating monthly">
<rect x="0.50" y="0.50" width="679.00" height="531.00" fill="#ffffff" rx="10" stroke="#e0e0dc" stroke-width="1"/>
<text x="28.00" y="40.00" font-family="Inter, -apple-system, 'Segoe UI', 'Helvetica Neue', Arial, sans-serif" font-size="16" fill="#1a1a1a" text-anchor="start" font-weight="600">Monthly incremental processing</text>
<rect x="76.00" y="84.00" width="340.00" height="56.00" fill="#fafaf8" rx="8" stroke="#e0e0dc" stroke-width="1.2"/>
<text x="246.00" y="109.00" font-family="Inter, -apple-system, 'Segoe UI', 'Helvetica Neue', Arial, sans-serif" font-size="13" fill="#1a1a1a" text-anchor="middle" font-weight="600">Repository snapshot</text>
<text x="246.00" y="127.00" font-family="ui-monospace, 'SF Mono', 'Cascadia Mono', Menlo, Consolas, monospace" font-size="10.5" fill="#6b6b6b" text-anchor="middle">compare against last month’s index</text>
<line x1="246.00" y1="140.00" x2="246.00" y2="163.00" stroke="#b9b8b2" stroke-width="1.5"/>
<path d="M 241.50 162.00 L 246.00 169.00 L 250.50 162.00" fill="#b9b8b2"/>
<rect x="76.00" y="170.00" width="340.00" height="56.00" fill="#fafaf8" rx="8" stroke="#e0e0dc" stroke-width="1.2"/>
<text x="246.00" y="195.00" font-family="Inter, -apple-system, 'Segoe UI', 'Helvetica Neue', Arial, sans-serif" font-size="13" fill="#1a1a1a" text-anchor="middle" font-weight="600">New documents detected</text>
<text x="246.00" y="213.00" font-family="ui-monospace, 'SF Mono', 'Cascadia Mono', Menlo, Consolas, monospace" font-size="10.5" fill="#6b6b6b" text-anchor="middle">additions and changed records</text>
<line x1="246.00" y1="226.00" x2="246.00" y2="249.00" stroke="#b9b8b2" stroke-width="1.5"/>
<path d="M 241.50 248.00 L 246.00 255.00 L 250.50 248.00" fill="#b9b8b2"/>
<rect x="76.00" y="256.00" width="340.00" height="56.00" fill="#fafaf8" rx="8" stroke="#e0e0dc" stroke-width="1.2"/>
<text x="246.00" y="281.00" font-family="Inter, -apple-system, 'Segoe UI', 'Helvetica Neue', Arial, sans-serif" font-size="13" fill="#1a1a1a" text-anchor="middle" font-weight="600">OCR / re-OCR</text>
<text x="246.00" y="299.00" font-family="ui-monospace, 'SF Mono', 'Cascadia Mono', Menlo, Consolas, monospace" font-size="10.5" fill="#6b6b6b" text-anchor="middle">render pages → Tesseract → searchable PDF</text>
<line x1="246.00" y1="312.00" x2="246.00" y2="335.00" stroke="#b9b8b2" stroke-width="1.5"/>
<path d="M 241.50 334.00 L 246.00 341.00 L 250.50 334.00" fill="#b9b8b2"/>
<rect x="76.00" y="342.00" width="340.00" height="56.00" fill="#fafaf8" rx="8" stroke="#e0e0dc" stroke-width="1.2"/>
<text x="246.00" y="367.00" font-family="Inter, -apple-system, 'Segoe UI', 'Helvetica Neue', Arial, sans-serif" font-size="13" fill="#1a1a1a" text-anchor="middle" font-weight="600">Model scoring</text>
<text x="246.00" y="385.00" font-family="ui-monospace, 'SF Mono', 'Cascadia Mono', Menlo, Consolas, monospace" font-size="10.5" fill="#6b6b6b" text-anchor="middle">same 20 classifiers, batch inference</text>
<line x1="246.00" y1="398.00" x2="246.00" y2="421.00" stroke="#b9b8b2" stroke-width="1.5"/>
<path d="M 241.50 420.00 L 246.00 427.00 L 250.50 420.00" fill="#b9b8b2"/>
<rect x="76.00" y="428.00" width="340.00" height="56.00" fill="#fafaf8" rx="8" stroke="#e0e0dc" stroke-width="1.2"/>
<text x="246.00" y="453.00" font-family="Inter, -apple-system, 'Segoe UI', 'Helvetica Neue', Arial, sans-serif" font-size="13" fill="#1a1a1a" text-anchor="middle" font-weight="600">Review pool update</text>
<text x="246.00" y="471.00" font-family="ui-monospace, 'SF Mono', 'Cascadia Mono', Menlo, Consolas, monospace" font-size="10.5" fill="#6b6b6b" text-anchor="middle">new candidates ranked into the queue</text>
<path d="M 416 456.0 L 472 456.0 L 472 112.0 L 424 112.0" fill="none" stroke="#b9b8b2" stroke-width="1.5" stroke-linejoin="round" stroke-linecap="round"/>
<path d="M 432.00 107.50 L 425.00 112.00 L 432.00 116.50" fill="none" stroke="#b9b8b2" stroke-width="1.5" stroke-linejoin="round" stroke-linecap="round"/>
<text x="486" y="284" font-family="ui-monospace, 'SF Mono', 'Cascadia Mono', Menlo, Consolas, monospace" font-size="11" fill="#6b6b6b" text-anchor="middle" transform="rotate(90 486 284)">repeat monthly</text>
</svg>
