<svg xmlns="http://www.w3.org/2000/svg" viewBox="0 0 680 400" width="680" height="400" role="img" aria-label="Histogram of document-level OCR confidence across the corpus, showing a long tail of degraded scans and a sharp peak near 94%">
<rect x="0.50" y="0.50" width="679.00" height="399.00" fill="#ffffff" rx="10" stroke="#e0e0dc" stroke-width="1"/>
<text x="28.00" y="40.00" font-family="Inter, -apple-system, 'Segoe UI', 'Helvetica Neue', Arial, sans-serif" font-size="16" fill="#1a1a1a" text-anchor="start" font-weight="600">OCR confidence across the corpus</text>
<text x="28.00" y="61.00" font-family="Inter, -apple-system, 'Segoe UI', 'Helvetica Neue', Arial, sans-serif" font-size="12.5" fill="#6b6b6b" text-anchor="start">Document-level mean word confidence, first pages of each record (Tesseract)</text>
<text x="56.00" y="328.00" font-family="ui-monospace, 'SF Mono', 'Cascadia Mono', Menlo, Consolas, monospace" font-size="11" fill="#6b6b6b" text-anchor="end">0%</text>
<line x1="64.00" y1="266.00" x2="650.00" y2="266.00" stroke="#edece8" stroke-width="1"/>
<text x="56.00" y="270.00" font-family="ui-monospace, 'SF Mono', 'Cascadia Mono', Menlo, Consolas, monospace" font-size="11" fill="#6b6b6b" text-anchor="end">4%</text>
<line x1="64.00" y1="208.00" x2="650.00" y2="208.00" stroke="#edece8" stroke-width="1"/>
<text x="56.00" y="212.00" font-family="ui-monospace, 'SF Mono', 'Cascadia Mono', Menlo, Consolas, monospace" font-size="11" fill="#6b6b6b" text-anchor="end">8%</text>
<line x1="64.00" y1="150.00" x2="650.00" y2="150.00" stroke="#edece8" stroke-width="1"/>
<text x="56.00" y="154.00" font-family="ui-monospace, 'SF Mono', 'Cascadia Mono', Menlo, Consolas, monospace" font-size="11" fill="#6b6b6b" text-anchor="end">12%</text>
<line x1="64.00" y1="92.00" x2="650.00" y2="92.00" stroke="#edece8" stroke-width="1"/>
<text x="56.00" y="96.00" font-family="ui-monospace, 'SF Mono', 'Cascadia Mono', Menlo, Consolas, monospace" font-size="11" fill="#6b6b6b" text-anchor="end">16%</text>
<text x="103.07" y="342.00" font-family="ui-monospace, 'SF Mono', 'Cascadia Mono', Menlo, Consolas, monospace" font-size="11" fill="#6b6b6b" text-anchor="middle">30</text>
<text x="181.20" y="342.00" font-family="ui-monospace, 'SF Mono', 'Cascadia Mono', Menlo, Consolas, monospace" font-size="11" fill="#6b6b6b" text-anchor="middle">40</text>
<text x="259.33" y="342.00" font-family="ui-monospace, 'SF Mono', 'Cascadia Mono', Menlo, Consolas, monospace" font-size="11" fill="#6b6b6b" text-anchor="middle">50</text>
<text x="337.47" y="342.00" font-family="ui-monospace, 'SF Mono', 'Cascadia Mono', Menlo, Consolas, monospace" font-size="11" fill="#6b6b6b" text-anchor="middle">60</text>
<text x="415.60" y="342.00" font-family="ui-monospace, 'SF Mono', 'Cascadia Mono', Menlo, Consolas, monospace" font-size="11" fill="#6b6b6b" text-anchor="middle">70</text>
<text x="493.73" y="342.00" font-family="ui-monospace, 'SF Mono', 'Cascadia Mono', Menlo, Consolas, monospace" font-size="11" fill="#6b6b6b" text-anchor="middle">80</text>
<text x="571.87" y="342.00" font-family="ui-monospace, 'SF Mono', 'Cascadia Mono', Menlo, Consolas, monospace" font-size="11" fill="#6b6b6b" text-anchor="middle">90</text>
<text x="650.00" y="342.00" font-family="ui-monospace, 'SF Mono', 'Cascadia Mono', Menlo, Consolas, monospace" font-size="11" fill="#6b6b6b" text-anchor="middle">100</text>
<line x1="64.00" y1="324.00" x2="650.00" y2="324.00" stroke="#e0e0dc" stroke-width="1"/>
<path d="M 96.25 324.00 L 96.25 324.00 Q 96.25 323.89 96.36 323.89 L 101.96 323.89 Q 102.07 323.89 102.07 324.00 L 102.07 324.00 Z" fill="#7b9440"/>
<path d="M 104.07 324.00 L 104.07 324.00 Q 104.07 323.87 104.20 323.87 L 109.75 323.87 Q 109.88 323.87 109.88 324.00 L 109.88 324.00 Z" fill="#7b9440"/>
<path d="M 111.88 324.00 L 111.88 324.00 Q 111.88 323.84 112.04 323.84 L 117.53 323.84 Q 117.69 323.84 117.69 324.00 L 117.69 324.00 Z" fill="#7b9440"/>
<path d="M 119.69 324.00 L 119.69 324.00 Q 119.69 323.79 119.90 323.79 L 125.30 323.79 Q 125.51 323.79 125.51 324.00 L 125.51 324.00 Z" fill="#7b9440"/>
<path d="M 127.51 324.00 L 127.51 324.00 Q 127.51 323.76 127.75 323.76 L 133.08 323.76 Q 133.32 323.76 133.32 324.00 L 133.32 324.00 Z" fill="#7b9440"/>
<path d="M 135.32 324.00 L 135.32 324.00 Q 135.32 323.68 135.64 323.68 L 140.82 323.68 Q 141.13 323.68 141.13 324.00 L 141.13 324.00 Z" fill="#7b9440"/>
<path d="M 143.13 324.00 L 143.13 324.00 Q 143.13 323.64 143.50 323.64 L 148.58 323.64 Q 148.95 323.64 148.95 324.00 L 148.95 324.00 Z" fill="#7b9440"/>
<path d="M 150.95 324.00 L 150.95 324.00 Q 150.95 323.56 151.39 323.56 L 156.32 323.56 Q 156.76 323.56 156.76 324.00 L 156.76 324.00 Z" fill="#7b9440"/>
<path d="M 158.76 324.00 L 158.76 324.00 Q 158.76 323.44 159.32 323.44 L 164.01 323.44 Q 164.57 323.44 164.57 324.00 L 164.57 324.00 Z" fill="#7b9440"/>
<path d="M 166.57 324.00 L 166.57 324.00 Q 166.57 323.28 167.29 323.28 L 171.67 323.28 Q 172.39 323.28 172.39 324.00 L 172.39 324.00 Z" fill="#7b9440"/>
<path d="M 174.39 324.00 L 174.39 324.00 Q 174.39 323.23 175.16 323.23 L 179.43 323.23 Q 180.20 323.23 180.20 324.00 L 180.20 324.00 Z" fill="#7b9440"/>
<path d="M 182.20 324.00 L 182.20 324.00 Q 182.20 323.07 183.13 323.07 L 187.08 323.07 Q 188.01 323.07 188.01 324.00 L 188.01 324.00 Z" fill="#7b9440"/>
<path d="M 190.01 324.00 L 190.01 324.00 Q 190.01 322.83 191.18 322.83 L 194.66 322.83 Q 195.83 322.83 195.83 324.00 L 195.83 324.00 Z" fill="#7b9440"/>
<path d="M 197.83 324.00 L 197.83 324.00 Q 197.83 322.56 199.27 322.56 L 202.20 322.56 Q 203.64 322.56 203.64 324.00 L 203.64 324.00 Z" fill="#7b9440"/>
<path d="M 205.64 324.00 L 205.64 324.00 Q 205.64 322.40 207.24 322.40 L 209.85 322.40 Q 211.45 322.40 211.45 324.00 L 211.45 324.00 Z" fill="#7b9440"/>
<path d="M 213.45 324.00 L 213.45 324.00 Q 213.45 322.18 215.28 322.18 L 217.44 322.18 Q 219.27 322.18 219.27 324.00 L 219.27 324.00 Z" fill="#7b9440"/>
<path d="M 221.27 324.00 L 221.27 324.00 Q 221.27 321.71 223.55 321.71 L 224.79 321.71 Q 227.08 321.71 227.08 324.00 L 227.08 324.00 Z" fill="#7b9440"/>
<path d="M 229.08 324.00 L 229.08 324.00 Q 229.08 321.68 231.40 321.68 L 232.58 321.68 Q 234.89 321.68 234.89 324.00 L 234.89 324.00 Z" fill="#7b9440"/>
<path d="M 236.89 324.00 L 236.89 323.34 Q 236.89 321.02 239.22 321.02 L 240.38 321.02 Q 242.71 321.02 242.71 323.34 L 242.71 324.00 Z" fill="#7b9440"/>
<path d="M 244.71 324.00 L 244.71 323.18 Q 244.71 320.85 247.03 320.85 L 248.19 320.85 Q 250.52 320.85 250.52 323.18 L 250.52 324.00 Z" fill="#7b9440"/>
<path d="M 252.52 324.00 L 252.52 322.83 Q 252.52 320.50 254.85 320.50 L 256.01 320.50 Q 258.33 320.50 258.33 322.83 L 258.33 324.00 Z" fill="#7b9440"/>
<path d="M 260.33 324.00 L 260.33 322.39 Q 260.33 320.06 262.66 320.06 L 263.82 320.06 Q 266.15 320.06 266.15 322.39 L 266.15 324.00 Z" fill="#7b9440"/>
<path d="M 268.15 324.00 L 268.15 321.77 Q 268.15 319.44 270.47 319.44 L 271.63 319.44 Q 273.96 319.44 273.96 321.77 L 273.96 324.00 Z" fill="#7b9440"/>
<path d="M 275.96 324.00 L 275.96 320.86 Q 275.96 318.53 278.29 318.53 L 279.45 318.53 Q 281.77 318.53 281.77 320.86 L 281.77 324.00 Z" fill="#7b9440"/>
<path d="M 283.77 324.00 L 283.77 320.76 Q 283.77 318.43 286.10 318.43 L 287.26 318.43 Q 289.59 318.43 289.59 320.76 L 289.59 324.00 Z" fill="#7b9440"/>
<path d="M 291.59 324.00 L 291.59 319.80 Q 291.59 317.47 293.91 317.47 L 295.07 317.47 Q 297.40 317.47 297.40 319.80 L 297.40 324.00 Z" fill="#7b9440"/>
<path d="M 299.40 324.00 L 299.40 319.08 Q 299.40 316.75 301.73 316.75 L 302.89 316.75 Q 305.21 316.75 305.21 319.08 L 305.21 324.00 Z" fill="#7b9440"/>
<path d="M 307.21 324.00 L 307.21 318.67 Q 307.21 316.34 309.54 316.34 L 310.70 316.34 Q 313.03 316.34 313.03 318.67 L 313.03 324.00 Z" fill="#7b9440"/>
<path d="M 315.03 324.00 L 315.03 317.77 Q 315.03 315.44 317.35 315.44 L 318.51 315.44 Q 320.84 315.44 320.84 317.77 L 320.84 324.00 Z" fill="#7b9440"/>
<path d="M 322.84 324.00 L 322.84 317.66 Q 322.84 315.34 325.17 315.34 L 326.33 315.34 Q 328.65 315.34 328.65 317.66 L 328.65 324.00 Z" fill="#7b9440"/>
<path d="M 330.65 324.00 L 330.65 316.98 Q 330.65 314.65 332.98 314.65 L 334.14 314.65 Q 336.47 314.65 336.47 316.98 L 336.47 324.00 Z" fill="#7b9440"/>
<path d="M 338.47 324.00 L 338.47 316.07 Q 338.47 313.74 340.79 313.74 L 341.95 313.74 Q 344.28 313.74 344.28 316.07 L 344.28 324.00 Z" fill="#7b9440"/>
<path d="M 346.28 324.00 L 346.28 314.60 Q 346.28 312.28 348.61 312.28 L 349.77 312.28 Q 352.09 312.28 352.09 314.60 L 352.09 324.00 Z" fill="#7b9440"/>
<path d="M 354.09 324.00 L 354.09 314.29 Q 354.09 311.97 356.42 311.97 L 357.58 311.97 Q 359.91 311.97 359.91 314.29 L 359.91 324.00 Z" fill="#7b9440"/>
<path d="M 361.91 324.00 L 361.91 313.80 Q 361.91 311.47 364.23 311.47 L 365.39 311.47 Q 367.72 311.47 367.72 313.80 L 367.72 324.00 Z" fill="#7b9440"/>
<path d="M 369.72 324.00 L 369.72 312.62 Q 369.72 310.30 372.05 310.30 L 373.21 310.30 Q 375.53 310.30 375.53 312.62 L 375.53 324.00 Z" fill="#7b9440"/>
<path d="M 377.53 324.00 L 377.53 312.23 Q 377.53 309.91 379.86 309.91 L 381.02 309.91 Q 383.35 309.91 383.35 312.23 L 383.35 324.00 Z" fill="#7b9440"/>
<path d="M 385.35 324.00 L 385.35 311.94 Q 385.35 309.61 387.67 309.61 L 388.83 309.61 Q 391.16 309.61 391.16 311.94 L 391.16 324.00 Z" fill="#7b9440"/>
<path d="M 393.16 324.00 L 393.16 310.31 Q 393.16 307.99 395.49 307.99 L 396.65 307.99 Q 398.97 307.99 398.97 310.31 L 398.97 324.00 Z" fill="#7b9440"/>
<path d="M 400.97 324.00 L 400.97 309.95 Q 400.97 307.63 403.30 307.63 L 404.46 307.63 Q 406.79 307.63 406.79 309.95 L 406.79 324.00 Z" fill="#7b9440"/>
<path d="M 408.79 324.00 L 408.79 310.46 Q 408.79 308.13 411.11 308.13 L 412.27 308.13 Q 414.60 308.13 414.60 310.46 L 414.60 324.00 Z" fill="#7b9440"/>
<path d="M 416.60 324.00 L 416.60 309.15 Q 416.60 306.83 418.93 306.83 L 420.09 306.83 Q 422.41 306.83 422.41 309.15 L 422.41 324.00 Z" fill="#7b9440"/>
<path d="M 424.41 324.00 L 424.41 308.69 Q 424.41 306.37 426.74 306.37 L 427.90 306.37 Q 430.23 306.37 430.23 308.69 L 430.23 324.00 Z" fill="#7b9440"/>
<path d="M 432.23 324.00 L 432.23 307.13 Q 432.23 304.81 434.55 304.81 L 435.71 304.81 Q 438.04 304.81 438.04 307.13 L 438.04 324.00 Z" fill="#7b9440"/>
<path d="M 440.04 324.00 L 440.04 306.66 Q 440.04 304.33 442.37 304.33 L 443.53 304.33 Q 445.85 304.33 445.85 306.66 L 445.85 324.00 Z" fill="#7b9440"/>
<path d="M 447.85 324.00 L 447.85 306.81 Q 447.85 304.49 450.18 304.49 L 451.34 304.49 Q 453.67 304.49 453.67 306.81 L 453.67 324.00 Z" fill="#7b9440"/>
<path d="M 455.67 324.00 L 455.67 303.40 Q 455.67 301.07 457.99 301.07 L 459.15 301.07 Q 461.48 301.07 461.48 303.40 L 461.48 324.00 Z" fill="#7b9440"/>
<path d="M 463.48 324.00 L 463.48 304.31 Q 463.48 301.98 465.81 301.98 L 466.97 301.98 Q 469.29 301.98 469.29 304.31 L 469.29 324.00 Z" fill="#7b9440"/>
<path d="M 471.29 324.00 L 471.29 301.09 Q 471.29 298.77 473.62 298.77 L 474.78 298.77 Q 477.11 298.77 477.11 301.09 L 477.11 324.00 Z" fill="#7b9440"/>
<path d="M 479.11 324.00 L 479.11 296.99 Q 479.11 294.67 481.43 294.67 L 482.59 294.67 Q 484.92 294.67 484.92 296.99 L 484.92 324.00 Z" fill="#7b9440"/>
<path d="M 486.92 324.00 L 486.92 296.23 Q 486.92 293.91 489.25 293.91 L 490.41 293.91 Q 492.73 293.91 492.73 296.23 L 492.73 324.00 Z" fill="#7b9440"/>
<path d="M 494.73 324.00 L 494.73 290.96 Q 494.73 288.64 497.06 288.64 L 498.22 288.64 Q 500.55 288.64 500.55 290.96 L 500.55 324.00 Z" fill="#7b9440"/>
<path d="M 502.55 324.00 L 502.55 289.34 Q 502.55 287.01 504.87 287.01 L 506.03 287.01 Q 508.36 287.01 508.36 289.34 L 508.36 324.00 Z" fill="#7b9440"/>
<path d="M 510.36 324.00 L 510.36 281.51 Q 510.36 279.18 512.69 279.18 L 513.85 279.18 Q 516.17 279.18 516.17 281.51 L 516.17 324.00 Z" fill="#7b9440"/>
<path d="M 518.17 324.00 L 518.17 276.65 Q 518.17 274.33 520.50 274.33 L 521.66 274.33 Q 523.99 274.33 523.99 276.65 L 523.99 324.00 Z" fill="#7b9440"/>
<path d="M 525.99 324.00 L 525.99 274.23 Q 525.99 271.91 528.31 271.91 L 529.47 271.91 Q 531.80 271.91 531.80 274.23 L 531.80 324.00 Z" fill="#7b9440"/>
<path d="M 533.80 324.00 L 533.80 268.99 Q 533.80 266.66 536.13 266.66 L 537.29 266.66 Q 539.61 266.66 539.61 268.99 L 539.61 324.00 Z" fill="#7b9440"/>
<path d="M 541.61 324.00 L 541.61 271.45 Q 541.61 269.13 543.94 269.13 L 545.10 269.13 Q 547.43 269.13 547.43 271.45 L 547.43 324.00 Z" fill="#7b9440"/>
<path d="M 549.43 324.00 L 549.43 267.80 Q 549.43 265.48 551.75 265.48 L 552.91 265.48 Q 555.24 265.48 555.24 267.80 L 555.24 324.00 Z" fill="#7b9440"/>
<path d="M 557.24 324.00 L 557.24 269.35 Q 557.24 267.03 559.57 267.03 L 560.73 267.03 Q 563.05 267.03 563.05 269.35 L 563.05 324.00 Z" fill="#7b9440"/>
<path d="M 565.05 324.00 L 565.05 271.58 Q 565.05 269.26 567.38 269.26 L 568.54 269.26 Q 570.87 269.26 570.87 271.58 L 570.87 324.00 Z" fill="#7b9440"/>
<path d="M 572.87 324.00 L 572.87 275.81 Q 572.87 273.49 575.19 273.49 L 576.35 273.49 Q 578.68 273.49 578.68 275.81 L 578.68 324.00 Z" fill="#7b9440"/>
<path d="M 580.68 324.00 L 580.68 277.34 Q 580.68 275.02 583.01 275.02 L 584.17 275.02 Q 586.49 275.02 586.49 277.34 L 586.49 324.00 Z" fill="#7b9440"/>
<path d="M 588.49 324.00 L 588.49 244.47 Q 588.49 242.15 590.82 242.15 L 591.98 242.15 Q 594.31 242.15 594.31 244.47 L 594.31 324.00 Z" fill="#7b9440"/>
<path d="M 596.31 324.00 L 596.31 105.29 Q 596.31 102.96 598.63 102.96 L 599.79 102.96 Q 602.12 102.96 602.12 105.29 L 602.12 324.00 Z" fill="#7b9440"/>
<path d="M 604.12 324.00 L 604.12 258.62 Q 604.12 256.29 606.45 256.29 L 607.61 256.29 Q 609.93 256.29 609.93 258.62 L 609.93 324.00 Z" fill="#7b9440"/>
<path d="M 611.93 324.00 L 611.93 302.29 Q 611.93 299.96 614.26 299.96 L 615.42 299.96 Q 617.75 299.96 617.75 302.29 L 617.75 324.00 Z" fill="#7b9440"/>
<path d="M 619.75 324.00 L 619.75 324.00 Q 619.75 322.27 621.48 322.27 L 623.83 322.27 Q 625.56 322.27 625.56 324.00 L 625.56 324.00 Z" fill="#7b9440"/>
<text x="585.93" y="141.30" font-family="Inter, -apple-system, 'Segoe UI', 'Helvetica Neue', Arial, sans-serif" font-size="11.5" fill="#1a1a1a" text-anchor="end">clean, modern scans</text>
<text x="585.93" y="156.30" font-family="Inter, -apple-system, 'Segoe UI', 'Helvetica Neue', Arial, sans-serif" font-size="11.5" fill="#1a1a1a" text-anchor="end">pile up here</text>
<text x="212.45" y="290.80" font-family="Inter, -apple-system, 'Segoe UI', 'Helvetica Neue', Arial, sans-serif" font-size="11.5" fill="#1a1a1a" text-anchor="start">long tail of degraded + typewritten scans</text>
<text x="357.00" y="364.00" font-family="Inter, -apple-system, 'Segoe UI', 'Helvetica Neue', Arial, sans-serif" font-size="12" fill="#6b6b6b" text-anchor="middle">OCR confidence (%)</text>
<text x="20.00" y="78.00" font-family="Inter, -apple-system, 'Segoe UI', 'Helvetica Neue', Arial, sans-serif" font-size="12" fill="#6b6b6b" text-anchor="start">Share of documents per 1% bin</text>
<text x="28.00" y="384.00" font-family="ui-monospace, 'SF Mono', 'Cascadia Mono', Menlo, Consolas, monospace" font-size="10" fill="#9a9a94" text-anchor="start">Recreated with representative synthetic data — labels generalized for confidentiality.</text>
</svg>
