<svg xmlns="http://www.w3.org/2000/svg" viewBox="0 0 680 590" width="680" height="590" role="img" aria-label="Three small-multiple histograms showing OCR confidence distributions for three predicted categories with progressively heavier low-quality tails">
<rect x="0.50" y="0.50" width="679.00" height="589.00" fill="#ffffff" rx="10" stroke="#e0e0dc" stroke-width="1"/>
<text x="28.00" y="40.00" font-family="Inter, -apple-system, 'Segoe UI', 'Helvetica Neue', Arial, sans-serif" font-size="16" fill="#1a1a1a" text-anchor="start" font-weight="600">OCR quality varies by predicted category</text>
<text x="28.00" y="61.00" font-family="Inter, -apple-system, 'Segoe UI', 'Helvetica Neue', Arial, sans-serif" font-size="12.5" fill="#6b6b6b" text-anchor="start">Same OCR-confidence measure, split by the model-predicted document type</text>
<line x1="64.00" y1="214.00" x2="650.00" y2="214.00" stroke="#e0e0dc" stroke-width="1"/>
<path d="M 240.80 214.00 L 240.80 214.00 Q 240.80 213.89 240.91 213.89 L 247.06 213.89 Q 247.17 213.89 247.17 214.00 L 247.17 214.00 Z" fill="#7b9440"/>
<path d="M 249.17 214.00 L 249.17 214.00 Q 249.17 213.83 249.34 213.83 L 255.37 213.83 Q 255.54 213.83 255.54 214.00 L 255.54 214.00 Z" fill="#7b9440"/>
<path d="M 257.54 214.00 L 257.54 214.00 Q 257.54 213.79 257.75 213.79 L 263.70 213.79 Q 263.91 213.79 263.91 214.00 L 263.91 214.00 Z" fill="#7b9440"/>
<path d="M 265.91 214.00 L 265.91 214.00 Q 265.91 213.71 266.21 213.71 L 271.99 213.71 Q 272.29 213.71 272.29 214.00 L 272.29 214.00 Z" fill="#7b9440"/>
<path d="M 274.29 214.00 L 274.29 214.00 Q 274.29 213.61 274.68 213.61 L 280.27 213.61 Q 280.66 213.61 280.66 214.00 L 280.66 214.00 Z" fill="#7b9440"/>
<path d="M 282.66 214.00 L 282.66 214.00 Q 282.66 213.51 283.15 213.51 L 288.54 213.51 Q 289.03 213.51 289.03 214.00 L 289.03 214.00 Z" fill="#7b9440"/>
<path d="M 291.03 214.00 L 291.03 214.00 Q 291.03 213.31 291.72 213.31 L 296.71 213.31 Q 297.40 213.31 297.40 214.00 L 297.40 214.00 Z" fill="#7b9440"/>
<path d="M 299.40 214.00 L 299.40 214.00 Q 299.40 213.12 300.28 213.12 L 304.89 213.12 Q 305.77 213.12 305.77 214.00 L 305.77 214.00 Z" fill="#7b9440"/>
<path d="M 307.77 214.00 L 307.77 214.00 Q 307.77 212.80 308.97 212.80 L 312.95 212.80 Q 314.14 212.80 314.14 214.00 L 314.14 214.00 Z" fill="#7b9440"/>
<path d="M 316.14 214.00 L 316.14 214.00 Q 316.14 212.59 317.56 212.59 L 321.10 212.59 Q 322.51 212.59 322.51 214.00 L 322.51 214.00 Z" fill="#7b9440"/>
<path d="M 324.51 214.00 L 324.51 214.00 Q 324.51 212.22 326.30 212.22 L 329.10 212.22 Q 330.89 212.22 330.89 214.00 L 330.89 214.00 Z" fill="#7b9440"/>
<path d="M 332.89 214.00 L 332.89 214.00 Q 332.89 211.88 335.00 211.88 L 337.14 211.88 Q 339.26 211.88 339.26 214.00 L 339.26 214.00 Z" fill="#7b9440"/>
<path d="M 341.26 214.00 L 341.26 213.88 Q 341.26 211.38 343.76 211.38 L 345.13 211.38 Q 347.63 211.38 347.63 213.88 L 347.63 214.00 Z" fill="#7b9440"/>
<path d="M 349.63 214.00 L 349.63 213.49 Q 349.63 210.99 352.13 210.99 L 353.50 210.99 Q 356.00 210.99 356.00 213.49 L 356.00 214.00 Z" fill="#7b9440"/>
<path d="M 358.00 214.00 L 358.00 213.09 Q 358.00 210.59 360.50 210.59 L 361.87 210.59 Q 364.37 210.59 364.37 213.09 L 364.37 214.00 Z" fill="#7b9440"/>
<path d="M 366.37 214.00 L 366.37 212.01 Q 366.37 209.51 368.87 209.51 L 370.24 209.51 Q 372.74 209.51 372.74 212.01 L 372.74 214.00 Z" fill="#7b9440"/>
<path d="M 374.74 214.00 L 374.74 211.35 Q 374.74 208.85 377.24 208.85 L 378.61 208.85 Q 381.11 208.85 381.11 211.35 L 381.11 214.00 Z" fill="#7b9440"/>
<path d="M 383.11 214.00 L 383.11 210.83 Q 383.11 208.33 385.61 208.33 L 386.99 208.33 Q 389.49 208.33 389.49 210.83 L 389.49 214.00 Z" fill="#7b9440"/>
<path d="M 391.49 214.00 L 391.49 210.30 Q 391.49 207.80 393.99 207.80 L 395.36 207.80 Q 397.86 207.80 397.86 210.30 L 397.86 214.00 Z" fill="#7b9440"/>
<path d="M 399.86 214.00 L 399.86 210.13 Q 399.86 207.63 402.36 207.63 L 403.73 207.63 Q 406.23 207.63 406.23 210.13 L 406.23 214.00 Z" fill="#7b9440"/>
<path d="M 408.23 214.00 L 408.23 209.66 Q 408.23 207.16 410.73 207.16 L 412.10 207.16 Q 414.60 207.16 414.60 209.66 L 414.60 214.00 Z" fill="#7b9440"/>
<path d="M 416.60 214.00 L 416.60 209.05 Q 416.60 206.55 419.10 206.55 L 420.47 206.55 Q 422.97 206.55 422.97 209.05 L 422.97 214.00 Z" fill="#7b9440"/>
<path d="M 424.97 214.00 L 424.97 208.90 Q 424.97 206.40 427.47 206.40 L 428.84 206.40 Q 431.34 206.40 431.34 208.90 L 431.34 214.00 Z" fill="#7b9440"/>
<path d="M 433.34 214.00 L 433.34 207.43 Q 433.34 204.93 435.84 204.93 L 437.21 204.93 Q 439.71 204.93 439.71 207.43 L 439.71 214.00 Z" fill="#7b9440"/>
<path d="M 441.71 214.00 L 441.71 207.68 Q 441.71 205.18 444.21 205.18 L 445.59 205.18 Q 448.09 205.18 448.09 207.68 L 448.09 214.00 Z" fill="#7b9440"/>
<path d="M 450.09 214.00 L 450.09 206.72 Q 450.09 204.22 452.59 204.22 L 453.96 204.22 Q 456.46 204.22 456.46 206.72 L 456.46 214.00 Z" fill="#7b9440"/>
<path d="M 458.46 214.00 L 458.46 207.37 Q 458.46 204.87 460.96 204.87 L 462.33 204.87 Q 464.83 204.87 464.83 207.37 L 464.83 214.00 Z" fill="#7b9440"/>
<path d="M 466.83 214.00 L 466.83 206.41 Q 466.83 203.91 469.33 203.91 L 470.70 203.91 Q 473.20 203.91 473.20 206.41 L 473.20 214.00 Z" fill="#7b9440"/>
<path d="M 475.20 214.00 L 475.20 206.70 Q 475.20 204.20 477.70 204.20 L 479.07 204.20 Q 481.57 204.20 481.57 206.70 L 481.57 214.00 Z" fill="#7b9440"/>
<path d="M 483.57 214.00 L 483.57 208.25 Q 483.57 205.75 486.07 205.75 L 487.44 205.75 Q 489.94 205.75 489.94 208.25 L 489.94 214.00 Z" fill="#7b9440"/>
<path d="M 491.94 214.00 L 491.94 208.02 Q 491.94 205.52 494.44 205.52 L 495.81 205.52 Q 498.31 205.52 498.31 208.02 L 498.31 214.00 Z" fill="#7b9440"/>
<path d="M 500.31 214.00 L 500.31 206.66 Q 500.31 204.16 502.81 204.16 L 504.19 204.16 Q 506.69 204.16 506.69 206.66 L 506.69 214.00 Z" fill="#7b9440"/>
<path d="M 508.69 214.00 L 508.69 206.23 Q 508.69 203.73 511.19 203.73 L 512.56 203.73 Q 515.06 203.73 515.06 206.23 L 515.06 214.00 Z" fill="#7b9440"/>
<path d="M 517.06 214.00 L 517.06 201.84 Q 517.06 199.34 519.56 199.34 L 520.93 199.34 Q 523.43 199.34 523.43 201.84 L 523.43 214.00 Z" fill="#7b9440"/>
<path d="M 525.43 214.00 L 525.43 196.72 Q 525.43 194.22 527.93 194.22 L 529.30 194.22 Q 531.80 194.22 531.80 196.72 L 531.80 214.00 Z" fill="#7b9440"/>
<path d="M 533.80 214.00 L 533.80 187.31 Q 533.80 184.81 536.30 184.81 L 537.67 184.81 Q 540.17 184.81 540.17 187.31 L 540.17 214.00 Z" fill="#7b9440"/>
<path d="M 542.17 214.00 L 542.17 167.32 Q 542.17 164.82 544.67 164.82 L 546.04 164.82 Q 548.54 164.82 548.54 167.32 L 548.54 214.00 Z" fill="#7b9440"/>
<path d="M 550.54 214.00 L 550.54 145.77 Q 550.54 143.27 553.04 143.27 L 554.41 143.27 Q 556.91 143.27 556.91 145.77 L 556.91 214.00 Z" fill="#7b9440"/>
<path d="M 558.91 214.00 L 558.91 135.06 Q 558.91 132.56 561.41 132.56 L 562.79 132.56 Q 565.29 132.56 565.29 135.06 L 565.29 214.00 Z" fill="#7b9440"/>
<path d="M 567.29 214.00 L 567.29 128.20 Q 567.29 125.70 569.79 125.70 L 571.16 125.70 Q 573.66 125.70 573.66 128.20 L 573.66 214.00 Z" fill="#7b9440"/>
<path d="M 575.66 214.00 L 575.66 124.50 Q 575.66 122.00 578.16 122.00 L 579.53 122.00 Q 582.03 122.00 582.03 124.50 L 582.03 214.00 Z" fill="#7b9440"/>
<path d="M 584.03 214.00 L 584.03 126.15 Q 584.03 123.65 586.53 123.65 L 587.90 123.65 Q 590.40 123.65 590.40 126.15 L 590.40 214.00 Z" fill="#7b9440"/>
<path d="M 592.40 214.00 L 592.40 148.74 Q 592.40 146.24 594.90 146.24 L 596.27 146.24 Q 598.77 146.24 598.77 148.74 L 598.77 214.00 Z" fill="#7b9440"/>
<path d="M 600.77 214.00 L 600.77 175.10 Q 600.77 172.60 603.27 172.60 L 604.64 172.60 Q 607.14 172.60 607.14 175.10 L 607.14 214.00 Z" fill="#7b9440"/>
<path d="M 609.14 214.00 L 609.14 190.68 Q 609.14 188.18 611.64 188.18 L 613.01 188.18 Q 615.51 188.18 615.51 190.68 L 615.51 214.00 Z" fill="#7b9440"/>
<path d="M 617.51 214.00 L 617.51 202.87 Q 617.51 200.37 620.01 200.37 L 621.39 200.37 Q 623.89 200.37 623.89 202.87 L 623.89 214.00 Z" fill="#7b9440"/>
<path d="M 625.89 214.00 L 625.89 209.87 Q 625.89 207.37 628.39 207.37 L 629.76 207.37 Q 632.26 207.37 632.26 209.87 L 632.26 214.00 Z" fill="#7b9440"/>
<path d="M 634.26 214.00 L 634.26 213.05 Q 634.26 210.55 636.76 210.55 L 638.13 210.55 Q 640.63 210.55 640.63 213.05 L 640.63 214.00 Z" fill="#7b9440"/>
<path d="M 642.63 214.00 L 642.63 214.00 Q 642.63 212.62 644.01 212.62 L 647.62 212.62 Q 649.00 212.62 649.00 214.00 L 649.00 214.00 Z" fill="#7b9440"/>
<rect x="64.00" y="91.00" width="10.00" height="10.00" fill="#7b9440" rx="2"/>
<text x="80.00" y="100.00" font-family="Inter, -apple-system, 'Segoe UI', 'Helvetica Neue', Arial, sans-serif" font-size="12.5" fill="#1a1a1a" text-anchor="start" font-weight="600">Predicted Category A</text>
<text x="650.00" y="100.00" font-family="Inter, -apple-system, 'Segoe UI', 'Helvetica Neue', Arial, sans-serif" font-size="11" fill="#6b6b6b" text-anchor="end">mostly modern, computer-generated — OCR is easy</text>
<line x1="64.00" y1="358.00" x2="650.00" y2="358.00" stroke="#e0e0dc" stroke-width="1"/>
<path d="M 140.34 358.00 L 140.34 358.00 Q 140.34 357.86 140.48 357.86 L 146.58 357.86 Q 146.71 357.86 146.71 358.00 L 146.71 358.00 Z" fill="#5977b8"/>
<path d="M 148.71 358.00 L 148.71 358.00 Q 148.71 357.79 148.93 357.79 L 154.87 357.79 Q 155.09 357.79 155.09 358.00 L 155.09 358.00 Z" fill="#5977b8"/>
<path d="M 157.09 358.00 L 157.09 358.00 Q 157.09 357.72 157.37 357.72 L 163.18 357.72 Q 163.46 357.72 163.46 358.00 L 163.46 358.00 Z" fill="#5977b8"/>
<path d="M 165.46 358.00 L 165.46 358.00 Q 165.46 357.65 165.80 357.65 L 171.48 357.65 Q 171.83 357.65 171.83 358.00 L 171.83 358.00 Z" fill="#5977b8"/>
<path d="M 173.83 358.00 L 173.83 358.00 Q 173.83 357.49 174.34 357.49 L 179.69 357.49 Q 180.20 357.49 180.20 358.00 L 180.20 358.00 Z" fill="#5977b8"/>
<path d="M 182.20 358.00 L 182.20 358.00 Q 182.20 357.40 182.80 357.40 L 187.97 357.40 Q 188.57 357.40 188.57 358.00 L 188.57 358.00 Z" fill="#5977b8"/>
<path d="M 190.57 358.00 L 190.57 358.00 Q 190.57 357.19 191.38 357.19 L 196.13 357.19 Q 196.94 357.19 196.94 358.00 L 196.94 358.00 Z" fill="#5977b8"/>
<path d="M 198.94 358.00 L 198.94 358.00 Q 198.94 356.86 200.09 356.86 L 204.17 356.86 Q 205.31 356.86 205.31 358.00 L 205.31 358.00 Z" fill="#5977b8"/>
<path d="M 207.31 358.00 L 207.31 358.00 Q 207.31 356.58 208.73 356.58 L 212.27 356.58 Q 213.69 356.58 213.69 358.00 L 213.69 358.00 Z" fill="#5977b8"/>
<path d="M 215.69 358.00 L 215.69 358.00 Q 215.69 356.37 217.31 356.37 L 220.43 356.37 Q 222.06 356.37 222.06 358.00 L 222.06 358.00 Z" fill="#5977b8"/>
<path d="M 224.06 358.00 L 224.06 358.00 Q 224.06 355.60 226.46 355.60 L 228.03 355.60 Q 230.43 355.60 230.43 358.00 L 230.43 358.00 Z" fill="#5977b8"/>
<path d="M 232.43 358.00 L 232.43 357.89 Q 232.43 355.39 234.93 355.39 L 236.30 355.39 Q 238.80 355.39 238.80 357.89 L 238.80 358.00 Z" fill="#5977b8"/>
<path d="M 240.80 358.00 L 240.80 357.25 Q 240.80 354.75 243.30 354.75 L 244.67 354.75 Q 247.17 354.75 247.17 357.25 L 247.17 358.00 Z" fill="#5977b8"/>
<path d="M 249.17 358.00 L 249.17 356.15 Q 249.17 353.65 251.67 353.65 L 253.04 353.65 Q 255.54 353.65 255.54 356.15 L 255.54 358.00 Z" fill="#5977b8"/>
<path d="M 257.54 358.00 L 257.54 355.64 Q 257.54 353.14 260.04 353.14 L 261.41 353.14 Q 263.91 353.14 263.91 355.64 L 263.91 358.00 Z" fill="#5977b8"/>
<path d="M 265.91 358.00 L 265.91 354.72 Q 265.91 352.22 268.41 352.22 L 269.79 352.22 Q 272.29 352.22 272.29 354.72 L 272.29 358.00 Z" fill="#5977b8"/>
<path d="M 274.29 358.00 L 274.29 353.93 Q 274.29 351.43 276.79 351.43 L 278.16 351.43 Q 280.66 351.43 280.66 353.93 L 280.66 358.00 Z" fill="#5977b8"/>
<path d="M 282.66 358.00 L 282.66 352.77 Q 282.66 350.27 285.16 350.27 L 286.53 350.27 Q 289.03 350.27 289.03 352.77 L 289.03 358.00 Z" fill="#5977b8"/>
<path d="M 291.03 358.00 L 291.03 350.65 Q 291.03 348.15 293.53 348.15 L 294.90 348.15 Q 297.40 348.15 297.40 350.65 L 297.40 358.00 Z" fill="#5977b8"/>
<path d="M 299.40 358.00 L 299.40 349.86 Q 299.40 347.36 301.90 347.36 L 303.27 347.36 Q 305.77 347.36 305.77 349.86 L 305.77 358.00 Z" fill="#5977b8"/>
<path d="M 307.77 358.00 L 307.77 347.56 Q 307.77 345.06 310.27 345.06 L 311.64 345.06 Q 314.14 345.06 314.14 347.56 L 314.14 358.00 Z" fill="#5977b8"/>
<path d="M 316.14 358.00 L 316.14 346.50 Q 316.14 344.00 318.64 344.00 L 320.01 344.00 Q 322.51 344.00 322.51 346.50 L 322.51 358.00 Z" fill="#5977b8"/>
<path d="M 324.51 358.00 L 324.51 344.64 Q 324.51 342.14 327.01 342.14 L 328.39 342.14 Q 330.89 342.14 330.89 344.64 L 330.89 358.00 Z" fill="#5977b8"/>
<path d="M 332.89 358.00 L 332.89 341.36 Q 332.89 338.86 335.39 338.86 L 336.76 338.86 Q 339.26 338.86 339.26 341.36 L 339.26 358.00 Z" fill="#5977b8"/>
<path d="M 341.26 358.00 L 341.26 341.21 Q 341.26 338.71 343.76 338.71 L 345.13 338.71 Q 347.63 338.71 347.63 341.21 L 347.63 358.00 Z" fill="#5977b8"/>
<path d="M 349.63 358.00 L 349.63 339.25 Q 349.63 336.75 352.13 336.75 L 353.50 336.75 Q 356.00 336.75 356.00 339.25 L 356.00 358.00 Z" fill="#5977b8"/>
<path d="M 358.00 358.00 L 358.00 336.51 Q 358.00 334.01 360.50 334.01 L 361.87 334.01 Q 364.37 334.01 364.37 336.51 L 364.37 358.00 Z" fill="#5977b8"/>
<path d="M 366.37 358.00 L 366.37 337.93 Q 366.37 335.43 368.87 335.43 L 370.24 335.43 Q 372.74 335.43 372.74 337.93 L 372.74 358.00 Z" fill="#5977b8"/>
<path d="M 374.74 358.00 L 374.74 336.84 Q 374.74 334.34 377.24 334.34 L 378.61 334.34 Q 381.11 334.34 381.11 336.84 L 381.11 358.00 Z" fill="#5977b8"/>
<path d="M 383.11 358.00 L 383.11 332.18 Q 383.11 329.68 385.61 329.68 L 386.99 329.68 Q 389.49 329.68 389.49 332.18 L 389.49 358.00 Z" fill="#5977b8"/>
<path d="M 391.49 358.00 L 391.49 331.53 Q 391.49 329.03 393.99 329.03 L 395.36 329.03 Q 397.86 329.03 397.86 331.53 L 397.86 358.00 Z" fill="#5977b8"/>
<path d="M 399.86 358.00 L 399.86 333.46 Q 399.86 330.96 402.36 330.96 L 403.73 330.96 Q 406.23 330.96 406.23 333.46 L 406.23 358.00 Z" fill="#5977b8"/>
<path d="M 408.23 358.00 L 408.23 332.93 Q 408.23 330.43 410.73 330.43 L 412.10 330.43 Q 414.60 330.43 414.60 332.93 L 414.60 358.00 Z" fill="#5977b8"/>
<path d="M 416.60 358.00 L 416.60 329.04 Q 416.60 326.54 419.10 326.54 L 420.47 326.54 Q 422.97 326.54 422.97 329.04 L 422.97 358.00 Z" fill="#5977b8"/>
<path d="M 424.97 358.00 L 424.97 326.70 Q 424.97 324.20 427.47 324.20 L 428.84 324.20 Q 431.34 324.20 431.34 326.70 L 431.34 358.00 Z" fill="#5977b8"/>
<path d="M 433.34 358.00 L 433.34 329.45 Q 433.34 326.95 435.84 326.95 L 437.21 326.95 Q 439.71 326.95 439.71 329.45 L 439.71 358.00 Z" fill="#5977b8"/>
<path d="M 441.71 358.00 L 441.71 322.72 Q 441.71 320.22 444.21 320.22 L 445.59 320.22 Q 448.09 320.22 448.09 322.72 L 448.09 358.00 Z" fill="#5977b8"/>
<path d="M 450.09 358.00 L 450.09 320.10 Q 450.09 317.60 452.59 317.60 L 453.96 317.60 Q 456.46 317.60 456.46 320.10 L 456.46 358.00 Z" fill="#5977b8"/>
<path d="M 458.46 358.00 L 458.46 318.17 Q 458.46 315.67 460.96 315.67 L 462.33 315.67 Q 464.83 315.67 464.83 318.17 L 464.83 358.00 Z" fill="#5977b8"/>
<path d="M 466.83 358.00 L 466.83 314.86 Q 466.83 312.36 469.33 312.36 L 470.70 312.36 Q 473.20 312.36 473.20 314.86 L 473.20 358.00 Z" fill="#5977b8"/>
<path d="M 475.20 358.00 L 475.20 312.22 Q 475.20 309.72 477.70 309.72 L 479.07 309.72 Q 481.57 309.72 481.57 312.22 L 481.57 358.00 Z" fill="#5977b8"/>
<path d="M 483.57 358.00 L 483.57 306.89 Q 483.57 304.39 486.07 304.39 L 487.44 304.39 Q 489.94 304.39 489.94 306.89 L 489.94 358.00 Z" fill="#5977b8"/>
<path d="M 491.94 358.00 L 491.94 289.68 Q 491.94 287.18 494.44 287.18 L 495.81 287.18 Q 498.31 287.18 498.31 289.68 L 498.31 358.00 Z" fill="#5977b8"/>
<path d="M 500.31 358.00 L 500.31 291.63 Q 500.31 289.13 502.81 289.13 L 504.19 289.13 Q 506.69 289.13 506.69 291.63 L 506.69 358.00 Z" fill="#5977b8"/>
<path d="M 508.69 358.00 L 508.69 279.05 Q 508.69 276.55 511.19 276.55 L 512.56 276.55 Q 515.06 276.55 515.06 279.05 L 515.06 358.00 Z" fill="#5977b8"/>
<path d="M 517.06 358.00 L 517.06 280.52 Q 517.06 278.02 519.56 278.02 L 520.93 278.02 Q 523.43 278.02 523.43 280.52 L 523.43 358.00 Z" fill="#5977b8"/>
<path d="M 525.43 358.00 L 525.43 268.50 Q 525.43 266.00 527.93 266.00 L 529.30 266.00 Q 531.80 266.00 531.80 268.50 L 531.80 358.00 Z" fill="#5977b8"/>
<path d="M 533.80 358.00 L 533.80 270.95 Q 533.80 268.45 536.30 268.45 L 537.67 268.45 Q 540.17 268.45 540.17 270.95 L 540.17 358.00 Z" fill="#5977b8"/>
<path d="M 542.17 358.00 L 542.17 277.05 Q 542.17 274.55 544.67 274.55 L 546.04 274.55 Q 548.54 274.55 548.54 277.05 L 548.54 358.00 Z" fill="#5977b8"/>
<path d="M 550.54 358.00 L 550.54 282.45 Q 550.54 279.95 553.04 279.95 L 554.41 279.95 Q 556.91 279.95 556.91 282.45 L 556.91 358.00 Z" fill="#5977b8"/>
<path d="M 558.91 358.00 L 558.91 280.52 Q 558.91 278.02 561.41 278.02 L 562.79 278.02 Q 565.29 278.02 565.29 280.52 L 565.29 358.00 Z" fill="#5977b8"/>
<path d="M 567.29 358.00 L 567.29 296.63 Q 567.29 294.13 569.79 294.13 L 571.16 294.13 Q 573.66 294.13 573.66 296.63 L 573.66 358.00 Z" fill="#5977b8"/>
<path d="M 575.66 358.00 L 575.66 303.03 Q 575.66 300.53 578.16 300.53 L 579.53 300.53 Q 582.03 300.53 582.03 303.03 L 582.03 358.00 Z" fill="#5977b8"/>
<path d="M 584.03 358.00 L 584.03 308.86 Q 584.03 306.36 586.53 306.36 L 587.90 306.36 Q 590.40 306.36 590.40 308.86 L 590.40 358.00 Z" fill="#5977b8"/>
<path d="M 592.40 358.00 L 592.40 315.97 Q 592.40 313.47 594.90 313.47 L 596.27 313.47 Q 598.77 313.47 598.77 315.97 L 598.77 358.00 Z" fill="#5977b8"/>
<path d="M 600.77 358.00 L 600.77 326.57 Q 600.77 324.07 603.27 324.07 L 604.64 324.07 Q 607.14 324.07 607.14 326.57 L 607.14 358.00 Z" fill="#5977b8"/>
<path d="M 609.14 358.00 L 609.14 335.93 Q 609.14 333.43 611.64 333.43 L 613.01 333.43 Q 615.51 333.43 615.51 335.93 L 615.51 358.00 Z" fill="#5977b8"/>
<path d="M 617.51 358.00 L 617.51 339.99 Q 617.51 337.49 620.01 337.49 L 621.39 337.49 Q 623.89 337.49 623.89 339.99 L 623.89 358.00 Z" fill="#5977b8"/>
<path d="M 625.89 358.00 L 625.89 347.45 Q 625.89 344.95 628.39 344.95 L 629.76 344.95 Q 632.26 344.95 632.26 347.45 L 632.26 358.00 Z" fill="#5977b8"/>
<path d="M 634.26 358.00 L 634.26 351.67 Q 634.26 349.17 636.76 349.17 L 638.13 349.17 Q 640.63 349.17 640.63 351.67 L 640.63 358.00 Z" fill="#5977b8"/>
<path d="M 642.63 358.00 L 642.63 354.20 Q 642.63 351.70 645.13 351.70 L 646.50 351.70 Q 649.00 351.70 649.00 354.20 L 649.00 358.00 Z" fill="#5977b8"/>
<rect x="64.00" y="235.00" width="10.00" height="10.00" fill="#5977b8" rx="2"/>
<text x="80.00" y="244.00" font-family="Inter, -apple-system, 'Segoe UI', 'Helvetica Neue', Arial, sans-serif" font-size="12.5" fill="#1a1a1a" text-anchor="start" font-weight="600">Predicted Category B</text>
<text x="650.00" y="244.00" font-family="Inter, -apple-system, 'Segoe UI', 'Helvetica Neue', Arial, sans-serif" font-size="11" fill="#6b6b6b" text-anchor="end">mixed vintages — a wider spread</text>
<line x1="64.00" y1="502.00" x2="650.00" y2="502.00" stroke="#e0e0dc" stroke-width="1"/>
<path d="M 65.00 502.00 L 65.00 502.00 Q 65.00 500.01 66.99 500.01 L 69.38 500.01 Q 71.37 500.01 71.37 502.00 L 71.37 502.00 Z" fill="#b0803c"/>
<path d="M 73.37 502.00 L 73.37 502.00 Q 73.37 499.71 75.66 499.71 L 77.45 499.71 Q 79.74 499.71 79.74 502.00 L 79.74 502.00 Z" fill="#b0803c"/>
<path d="M 81.74 502.00 L 81.74 501.61 Q 81.74 499.11 84.24 499.11 L 85.61 499.11 Q 88.11 499.11 88.11 501.61 L 88.11 502.00 Z" fill="#b0803c"/>
<path d="M 90.11 502.00 L 90.11 500.84 Q 90.11 498.34 92.61 498.34 L 93.99 498.34 Q 96.49 498.34 96.49 500.84 L 96.49 502.00 Z" fill="#b0803c"/>
<path d="M 98.49 502.00 L 98.49 499.89 Q 98.49 497.39 100.99 497.39 L 102.36 497.39 Q 104.86 497.39 104.86 499.89 L 104.86 502.00 Z" fill="#b0803c"/>
<path d="M 106.86 502.00 L 106.86 499.37 Q 106.86 496.87 109.36 496.87 L 110.73 496.87 Q 113.23 496.87 113.23 499.37 L 113.23 502.00 Z" fill="#b0803c"/>
<path d="M 115.23 502.00 L 115.23 498.08 Q 115.23 495.58 117.73 495.58 L 119.10 495.58 Q 121.60 495.58 121.60 498.08 L 121.60 502.00 Z" fill="#b0803c"/>
<path d="M 123.60 502.00 L 123.60 496.12 Q 123.60 493.62 126.10 493.62 L 127.47 493.62 Q 129.97 493.62 129.97 496.12 L 129.97 502.00 Z" fill="#b0803c"/>
<path d="M 131.97 502.00 L 131.97 494.45 Q 131.97 491.95 134.47 491.95 L 135.84 491.95 Q 138.34 491.95 138.34 494.45 L 138.34 502.00 Z" fill="#b0803c"/>
<path d="M 140.34 502.00 L 140.34 493.35 Q 140.34 490.85 142.84 490.85 L 144.21 490.85 Q 146.71 490.85 146.71 493.35 L 146.71 502.00 Z" fill="#b0803c"/>
<path d="M 148.71 502.00 L 148.71 491.43 Q 148.71 488.93 151.21 488.93 L 152.59 488.93 Q 155.09 488.93 155.09 491.43 L 155.09 502.00 Z" fill="#b0803c"/>
<path d="M 157.09 502.00 L 157.09 489.66 Q 157.09 487.16 159.59 487.16 L 160.96 487.16 Q 163.46 487.16 163.46 489.66 L 163.46 502.00 Z" fill="#b0803c"/>
<path d="M 165.46 502.00 L 165.46 488.79 Q 165.46 486.29 167.96 486.29 L 169.33 486.29 Q 171.83 486.29 171.83 488.79 L 171.83 502.00 Z" fill="#b0803c"/>
<path d="M 173.83 502.00 L 173.83 486.93 Q 173.83 484.43 176.33 484.43 L 177.70 484.43 Q 180.20 484.43 180.20 486.93 L 180.20 502.00 Z" fill="#b0803c"/>
<path d="M 182.20 502.00 L 182.20 484.66 Q 182.20 482.16 184.70 482.16 L 186.07 482.16 Q 188.57 482.16 188.57 484.66 L 188.57 502.00 Z" fill="#b0803c"/>
<path d="M 190.57 502.00 L 190.57 478.25 Q 190.57 475.75 193.07 475.75 L 194.44 475.75 Q 196.94 475.75 196.94 478.25 L 196.94 502.00 Z" fill="#b0803c"/>
<path d="M 198.94 502.00 L 198.94 476.19 Q 198.94 473.69 201.44 473.69 L 202.81 473.69 Q 205.31 473.69 205.31 476.19 L 205.31 502.00 Z" fill="#b0803c"/>
<path d="M 207.31 502.00 L 207.31 471.65 Q 207.31 469.15 209.81 469.15 L 211.19 469.15 Q 213.69 469.15 213.69 471.65 L 213.69 502.00 Z" fill="#b0803c"/>
<path d="M 215.69 502.00 L 215.69 473.96 Q 215.69 471.46 218.19 471.46 L 219.56 471.46 Q 222.06 471.46 222.06 473.96 L 222.06 502.00 Z" fill="#b0803c"/>
<path d="M 224.06 502.00 L 224.06 467.02 Q 224.06 464.52 226.56 464.52 L 227.93 464.52 Q 230.43 464.52 230.43 467.02 L 230.43 502.00 Z" fill="#b0803c"/>
<path d="M 232.43 502.00 L 232.43 464.85 Q 232.43 462.35 234.93 462.35 L 236.30 462.35 Q 238.80 462.35 238.80 464.85 L 238.80 502.00 Z" fill="#b0803c"/>
<path d="M 240.80 502.00 L 240.80 459.77 Q 240.80 457.27 243.30 457.27 L 244.67 457.27 Q 247.17 457.27 247.17 459.77 L 247.17 502.00 Z" fill="#b0803c"/>
<path d="M 249.17 502.00 L 249.17 459.94 Q 249.17 457.44 251.67 457.44 L 253.04 457.44 Q 255.54 457.44 255.54 459.94 L 255.54 502.00 Z" fill="#b0803c"/>
<path d="M 257.54 502.00 L 257.54 451.02 Q 257.54 448.52 260.04 448.52 L 261.41 448.52 Q 263.91 448.52 263.91 451.02 L 263.91 502.00 Z" fill="#b0803c"/>
<path d="M 265.91 502.00 L 265.91 456.54 Q 265.91 454.04 268.41 454.04 L 269.79 454.04 Q 272.29 454.04 272.29 456.54 L 272.29 502.00 Z" fill="#b0803c"/>
<path d="M 274.29 502.00 L 274.29 449.44 Q 274.29 446.94 276.79 446.94 L 278.16 446.94 Q 280.66 446.94 280.66 449.44 L 280.66 502.00 Z" fill="#b0803c"/>
<path d="M 282.66 502.00 L 282.66 445.00 Q 282.66 442.50 285.16 442.50 L 286.53 442.50 Q 289.03 442.50 289.03 445.00 L 289.03 502.00 Z" fill="#b0803c"/>
<path d="M 291.03 502.00 L 291.03 440.96 Q 291.03 438.46 293.53 438.46 L 294.90 438.46 Q 297.40 438.46 297.40 440.96 L 297.40 502.00 Z" fill="#b0803c"/>
<path d="M 299.40 502.00 L 299.40 440.68 Q 299.40 438.18 301.90 438.18 L 303.27 438.18 Q 305.77 438.18 305.77 440.68 L 305.77 502.00 Z" fill="#b0803c"/>
<path d="M 307.77 502.00 L 307.77 439.32 Q 307.77 436.82 310.27 436.82 L 311.64 436.82 Q 314.14 436.82 314.14 439.32 L 314.14 502.00 Z" fill="#b0803c"/>
<path d="M 316.14 502.00 L 316.14 436.84 Q 316.14 434.34 318.64 434.34 L 320.01 434.34 Q 322.51 434.34 322.51 436.84 L 322.51 502.00 Z" fill="#b0803c"/>
<path d="M 324.51 502.00 L 324.51 434.19 Q 324.51 431.69 327.01 431.69 L 328.39 431.69 Q 330.89 431.69 330.89 434.19 L 330.89 502.00 Z" fill="#b0803c"/>
<path d="M 332.89 502.00 L 332.89 439.90 Q 332.89 437.40 335.39 437.40 L 336.76 437.40 Q 339.26 437.40 339.26 439.90 L 339.26 502.00 Z" fill="#b0803c"/>
<path d="M 341.26 502.00 L 341.26 435.11 Q 341.26 432.61 343.76 432.61 L 345.13 432.61 Q 347.63 432.61 347.63 435.11 L 347.63 502.00 Z" fill="#b0803c"/>
<path d="M 349.63 502.00 L 349.63 431.78 Q 349.63 429.28 352.13 429.28 L 353.50 429.28 Q 356.00 429.28 356.00 431.78 L 356.00 502.00 Z" fill="#b0803c"/>
<path d="M 358.00 502.00 L 358.00 431.46 Q 358.00 428.96 360.50 428.96 L 361.87 428.96 Q 364.37 428.96 364.37 431.46 L 364.37 502.00 Z" fill="#b0803c"/>
<path d="M 366.37 502.00 L 366.37 436.39 Q 366.37 433.89 368.87 433.89 L 370.24 433.89 Q 372.74 433.89 372.74 436.39 L 372.74 502.00 Z" fill="#b0803c"/>
<path d="M 374.74 502.00 L 374.74 430.93 Q 374.74 428.43 377.24 428.43 L 378.61 428.43 Q 381.11 428.43 381.11 430.93 L 381.11 502.00 Z" fill="#b0803c"/>
<path d="M 383.11 502.00 L 383.11 429.02 Q 383.11 426.52 385.61 426.52 L 386.99 426.52 Q 389.49 426.52 389.49 429.02 L 389.49 502.00 Z" fill="#b0803c"/>
<path d="M 391.49 502.00 L 391.49 431.56 Q 391.49 429.06 393.99 429.06 L 395.36 429.06 Q 397.86 429.06 397.86 431.56 L 397.86 502.00 Z" fill="#b0803c"/>
<path d="M 399.86 502.00 L 399.86 429.48 Q 399.86 426.98 402.36 426.98 L 403.73 426.98 Q 406.23 426.98 406.23 429.48 L 406.23 502.00 Z" fill="#b0803c"/>
<path d="M 408.23 502.00 L 408.23 431.10 Q 408.23 428.60 410.73 428.60 L 412.10 428.60 Q 414.60 428.60 414.60 431.10 L 414.60 502.00 Z" fill="#b0803c"/>
<path d="M 416.60 502.00 L 416.60 426.55 Q 416.60 424.05 419.10 424.05 L 420.47 424.05 Q 422.97 424.05 422.97 426.55 L 422.97 502.00 Z" fill="#b0803c"/>
<path d="M 424.97 502.00 L 424.97 424.19 Q 424.97 421.69 427.47 421.69 L 428.84 421.69 Q 431.34 421.69 431.34 424.19 L 431.34 502.00 Z" fill="#b0803c"/>
<path d="M 433.34 502.00 L 433.34 429.82 Q 433.34 427.32 435.84 427.32 L 437.21 427.32 Q 439.71 427.32 439.71 429.82 L 439.71 502.00 Z" fill="#b0803c"/>
<path d="M 441.71 502.00 L 441.71 419.68 Q 441.71 417.18 444.21 417.18 L 445.59 417.18 Q 448.09 417.18 448.09 419.68 L 448.09 502.00 Z" fill="#b0803c"/>
<path d="M 450.09 502.00 L 450.09 412.50 Q 450.09 410.00 452.59 410.00 L 453.96 410.00 Q 456.46 410.00 456.46 412.50 L 456.46 502.00 Z" fill="#b0803c"/>
<path d="M 458.46 502.00 L 458.46 412.73 Q 458.46 410.23 460.96 410.23 L 462.33 410.23 Q 464.83 410.23 464.83 412.73 L 464.83 502.00 Z" fill="#b0803c"/>
<path d="M 466.83 502.00 L 466.83 414.13 Q 466.83 411.63 469.33 411.63 L 470.70 411.63 Q 473.20 411.63 473.20 414.13 L 473.20 502.00 Z" fill="#b0803c"/>
<path d="M 475.20 502.00 L 475.20 419.17 Q 475.20 416.67 477.70 416.67 L 479.07 416.67 Q 481.57 416.67 481.57 419.17 L 481.57 502.00 Z" fill="#b0803c"/>
<path d="M 483.57 502.00 L 483.57 414.24 Q 483.57 411.74 486.07 411.74 L 487.44 411.74 Q 489.94 411.74 489.94 414.24 L 489.94 502.00 Z" fill="#b0803c"/>
<path d="M 491.94 502.00 L 491.94 417.96 Q 491.94 415.46 494.44 415.46 L 495.81 415.46 Q 498.31 415.46 498.31 417.96 L 498.31 502.00 Z" fill="#b0803c"/>
<path d="M 500.31 502.00 L 500.31 422.28 Q 500.31 419.78 502.81 419.78 L 504.19 419.78 Q 506.69 419.78 506.69 422.28 L 506.69 502.00 Z" fill="#b0803c"/>
<path d="M 508.69 502.00 L 508.69 419.56 Q 508.69 417.06 511.19 417.06 L 512.56 417.06 Q 515.06 417.06 515.06 419.56 L 515.06 502.00 Z" fill="#b0803c"/>
<path d="M 517.06 502.00 L 517.06 434.01 Q 517.06 431.51 519.56 431.51 L 520.93 431.51 Q 523.43 431.51 523.43 434.01 L 523.43 502.00 Z" fill="#b0803c"/>
<path d="M 525.43 502.00 L 525.43 429.67 Q 525.43 427.17 527.93 427.17 L 529.30 427.17 Q 531.80 427.17 531.80 429.67 L 531.80 502.00 Z" fill="#b0803c"/>
<path d="M 533.80 502.00 L 533.80 443.71 Q 533.80 441.21 536.30 441.21 L 537.67 441.21 Q 540.17 441.21 540.17 443.71 L 540.17 502.00 Z" fill="#b0803c"/>
<path d="M 542.17 502.00 L 542.17 442.63 Q 542.17 440.13 544.67 440.13 L 546.04 440.13 Q 548.54 440.13 548.54 442.63 L 548.54 502.00 Z" fill="#b0803c"/>
<path d="M 550.54 502.00 L 550.54 449.86 Q 550.54 447.36 553.04 447.36 L 554.41 447.36 Q 556.91 447.36 556.91 449.86 L 556.91 502.00 Z" fill="#b0803c"/>
<path d="M 558.91 502.00 L 558.91 458.09 Q 558.91 455.59 561.41 455.59 L 562.79 455.59 Q 565.29 455.59 565.29 458.09 L 565.29 502.00 Z" fill="#b0803c"/>
<path d="M 567.29 502.00 L 567.29 460.20 Q 567.29 457.70 569.79 457.70 L 571.16 457.70 Q 573.66 457.70 573.66 460.20 L 573.66 502.00 Z" fill="#b0803c"/>
<path d="M 575.66 502.00 L 575.66 467.55 Q 575.66 465.05 578.16 465.05 L 579.53 465.05 Q 582.03 465.05 582.03 467.55 L 582.03 502.00 Z" fill="#b0803c"/>
<path d="M 584.03 502.00 L 584.03 472.36 Q 584.03 469.86 586.53 469.86 L 587.90 469.86 Q 590.40 469.86 590.40 472.36 L 590.40 502.00 Z" fill="#b0803c"/>
<path d="M 592.40 502.00 L 592.40 476.07 Q 592.40 473.57 594.90 473.57 L 596.27 473.57 Q 598.77 473.57 598.77 476.07 L 598.77 502.00 Z" fill="#b0803c"/>
<path d="M 600.77 502.00 L 600.77 483.61 Q 600.77 481.11 603.27 481.11 L 604.64 481.11 Q 607.14 481.11 607.14 483.61 L 607.14 502.00 Z" fill="#b0803c"/>
<path d="M 609.14 502.00 L 609.14 488.26 Q 609.14 485.76 611.64 485.76 L 613.01 485.76 Q 615.51 485.76 615.51 488.26 L 615.51 502.00 Z" fill="#b0803c"/>
<path d="M 617.51 502.00 L 617.51 490.72 Q 617.51 488.22 620.01 488.22 L 621.39 488.22 Q 623.89 488.22 623.89 490.72 L 623.89 502.00 Z" fill="#b0803c"/>
<path d="M 625.89 502.00 L 625.89 492.84 Q 625.89 490.34 628.39 490.34 L 629.76 490.34 Q 632.26 490.34 632.26 492.84 L 632.26 502.00 Z" fill="#b0803c"/>
<path d="M 634.26 502.00 L 634.26 496.17 Q 634.26 493.67 636.76 493.67 L 638.13 493.67 Q 640.63 493.67 640.63 496.17 L 640.63 502.00 Z" fill="#b0803c"/>
<path d="M 642.63 502.00 L 642.63 498.15 Q 642.63 495.65 645.13 495.65 L 646.50 495.65 Q 649.00 495.65 649.00 498.15 L 649.00 502.00 Z" fill="#b0803c"/>
<rect x="64.00" y="379.00" width="10.00" height="10.00" fill="#b0803c" rx="2"/>
<text x="80.00" y="388.00" font-family="Inter, -apple-system, 'Segoe UI', 'Helvetica Neue', Arial, sans-serif" font-size="12.5" fill="#1a1a1a" text-anchor="start" font-weight="600">Predicted Category C</text>
<text x="650.00" y="388.00" font-family="Inter, -apple-system, 'Segoe UI', 'Helvetica Neue', Arial, sans-serif" font-size="11" fill="#6b6b6b" text-anchor="end">older typewritten scans drag quality down</text>
<text x="64.00" y="520.00" font-family="ui-monospace, 'SF Mono', 'Cascadia Mono', Menlo, Consolas, monospace" font-size="11" fill="#6b6b6b" text-anchor="middle">30</text>
<text x="147.71" y="520.00" font-family="ui-monospace, 'SF Mono', 'Cascadia Mono', Menlo, Consolas, monospace" font-size="11" fill="#6b6b6b" text-anchor="middle">40</text>
<text x="231.43" y="520.00" font-family="ui-monospace, 'SF Mono', 'Cascadia Mono', Menlo, Consolas, monospace" font-size="11" fill="#6b6b6b" text-anchor="middle">50</text>
<text x="315.14" y="520.00" font-family="ui-monospace, 'SF Mono', 'Cascadia Mono', Menlo, Consolas, monospace" font-size="11" fill="#6b6b6b" text-anchor="middle">60</text>
<text x="398.86" y="520.00" font-family="ui-monospace, 'SF Mono', 'Cascadia Mono', Menlo, Consolas, monospace" font-size="11" fill="#6b6b6b" text-anchor="middle">70</text>
<text x="482.57" y="520.00" font-family="ui-monospace, 'SF Mono', 'Cascadia Mono', Menlo, Consolas, monospace" font-size="11" fill="#6b6b6b" text-anchor="middle">80</text>
<text x="566.29" y="520.00" font-family="ui-monospace, 'SF Mono', 'Cascadia Mono', Menlo, Consolas, monospace" font-size="11" fill="#6b6b6b" text-anchor="middle">90</text>
<text x="650.00" y="520.00" font-family="ui-monospace, 'SF Mono', 'Cascadia Mono', Menlo, Consolas, monospace" font-size="11" fill="#6b6b6b" text-anchor="middle">100</text>
<text x="357.00" y="546.00" font-family="Inter, -apple-system, 'Segoe UI', 'Helvetica Neue', Arial, sans-serif" font-size="12" fill="#6b6b6b" text-anchor="middle">OCR confidence (%)</text>
<text x="28.00" y="574.00" font-family="ui-monospace, 'SF Mono', 'Cascadia Mono', Menlo, Consolas, monospace" font-size="10" fill="#9a9a94" text-anchor="start">Recreated with representative synthetic data — labels generalized for confidentiality.</text>
</svg>
