<svg xmlns="http://www.w3.org/2000/svg" viewBox="0 0 680 420" width="680" height="420" role="img" aria-label="U-shaped log-scale histogram of classifier probability scores across the corpus: most documents scored near zero, a clear cluster near one, and few in between">
<rect x="0.50" y="0.50" width="679.00" height="419.00" fill="#ffffff" rx="10" stroke="#e0e0dc" stroke-width="1"/>
<text x="28.00" y="40.00" font-family="Inter, -apple-system, 'Segoe UI', 'Helvetica Neue', Arial, sans-serif" font-size="16" fill="#1a1a1a" text-anchor="start" font-weight="600">Where model scores land across the full corpus</text>
<text x="28.00" y="61.00" font-family="Inter, -apple-system, 'Segoe UI', 'Helvetica Neue', Arial, sans-serif" font-size="12.5" fill="#6b6b6b" text-anchor="start">One classifier’s probability scores over every unlabeled document (log scale)</text>
<text x="66.00" y="340.00" font-family="ui-monospace, 'SF Mono', 'Cascadia Mono', Menlo, Consolas, monospace" font-size="11" fill="#6b6b6b" text-anchor="end">0.1%</text>
<line x1="74.00" y1="256.00" x2="650.00" y2="256.00" stroke="#edece8" stroke-width="1"/>
<text x="66.00" y="260.00" font-family="ui-monospace, 'SF Mono', 'Cascadia Mono', Menlo, Consolas, monospace" font-size="11" fill="#6b6b6b" text-anchor="end">1%</text>
<line x1="74.00" y1="176.00" x2="650.00" y2="176.00" stroke="#edece8" stroke-width="1"/>
<text x="66.00" y="180.00" font-family="ui-monospace, 'SF Mono', 'Cascadia Mono', Menlo, Consolas, monospace" font-size="11" fill="#6b6b6b" text-anchor="end">10%</text>
<line x1="74.00" y1="96.00" x2="650.00" y2="96.00" stroke="#edece8" stroke-width="1"/>
<text x="66.00" y="100.00" font-family="ui-monospace, 'SF Mono', 'Cascadia Mono', Menlo, Consolas, monospace" font-size="11" fill="#6b6b6b" text-anchor="end">100%</text>
<line x1="74.00" y1="336.00" x2="650.00" y2="336.00" stroke="#e0e0dc" stroke-width="1"/>
<path d="M 75.50 336.00 L 75.50 117.20 Q 75.50 114.70 78.00 114.70 L 98.80 114.70 Q 101.30 114.70 101.30 117.20 L 101.30 336.00 Z" fill="#7b9440"/>
<path d="M 104.30 336.00 L 104.30 226.56 Q 104.30 224.06 106.80 224.06 L 127.60 224.06 Q 130.10 224.06 130.10 226.56 L 130.10 336.00 Z" fill="#7b9440"/>
<path d="M 133.10 336.00 L 133.10 248.05 Q 133.10 245.55 135.60 245.55 L 156.40 245.55 Q 158.90 245.55 158.90 248.05 L 158.90 336.00 Z" fill="#7b9440"/>
<path d="M 161.90 336.00 L 161.90 263.64 Q 161.90 261.14 164.40 261.14 L 185.20 261.14 Q 187.70 261.14 187.70 263.64 L 187.70 336.00 Z" fill="#7b9440"/>
<path d="M 190.70 336.00 L 190.70 270.57 Q 190.70 268.07 193.20 268.07 L 214.00 268.07 Q 216.50 268.07 216.50 270.57 L 216.50 336.00 Z" fill="#7b9440"/>
<path d="M 219.50 336.00 L 219.50 275.37 Q 219.50 272.87 222.00 272.87 L 242.80 272.87 Q 245.30 272.87 245.30 275.37 L 245.30 336.00 Z" fill="#7b9440"/>
<path d="M 248.30 336.00 L 248.30 281.12 Q 248.30 278.62 250.80 278.62 L 271.60 278.62 Q 274.10 278.62 274.10 281.12 L 274.10 336.00 Z" fill="#7b9440"/>
<path d="M 277.10 336.00 L 277.10 288.33 Q 277.10 285.83 279.60 285.83 L 300.40 285.83 Q 302.90 285.83 302.90 288.33 L 302.90 336.00 Z" fill="#7b9440"/>
<path d="M 305.90 336.00 L 305.90 291.42 Q 305.90 288.92 308.40 288.92 L 329.20 288.92 Q 331.70 288.92 331.70 291.42 L 331.70 336.00 Z" fill="#7b9440"/>
<path d="M 334.70 336.00 L 334.70 293.24 Q 334.70 290.74 337.20 290.74 L 358.00 290.74 Q 360.50 290.74 360.50 293.24 L 360.50 336.00 Z" fill="#7b9440"/>
<path d="M 363.50 336.00 L 363.50 294.98 Q 363.50 292.48 366.00 292.48 L 386.80 292.48 Q 389.30 292.48 389.30 294.98 L 389.30 336.00 Z" fill="#7b9440"/>
<path d="M 392.30 336.00 L 392.30 292.27 Q 392.30 289.77 394.80 289.77 L 415.60 289.77 Q 418.10 289.77 418.10 292.27 L 418.10 336.00 Z" fill="#7b9440"/>
<path d="M 421.10 336.00 L 421.10 290.33 Q 421.10 287.83 423.60 287.83 L 444.40 287.83 Q 446.90 287.83 446.90 290.33 L 446.90 336.00 Z" fill="#7b9440"/>
<path d="M 449.90 336.00 L 449.90 286.20 Q 449.90 283.70 452.40 283.70 L 473.20 283.70 Q 475.70 283.70 475.70 286.20 L 475.70 336.00 Z" fill="#7b9440"/>
<path d="M 478.70 336.00 L 478.70 278.55 Q 478.70 276.05 481.20 276.05 L 502.00 276.05 Q 504.50 276.05 504.50 278.55 L 504.50 336.00 Z" fill="#7b9440"/>
<path d="M 507.50 336.00 L 507.50 273.21 Q 507.50 270.71 510.00 270.71 L 530.80 270.71 Q 533.30 270.71 533.30 273.21 L 533.30 336.00 Z" fill="#7b9440"/>
<path d="M 536.30 336.00 L 536.30 265.35 Q 536.30 262.85 538.80 262.85 L 559.60 262.85 Q 562.10 262.85 562.10 265.35 L 562.10 336.00 Z" fill="#7b9440"/>
<path d="M 565.10 336.00 L 565.10 256.00 Q 565.10 253.50 567.60 253.50 L 588.40 253.50 Q 590.90 253.50 590.90 256.00 L 590.90 336.00 Z" fill="#7b9440"/>
<path d="M 593.90 336.00 L 593.90 242.66 Q 593.90 240.16 596.40 240.16 L 617.20 240.16 Q 619.70 240.16 619.70 242.66 L 619.70 336.00 Z" fill="#7b9440"/>
<path d="M 622.70 336.00 L 622.70 171.23 Q 622.70 168.73 625.20 168.73 L 646.00 168.73 Q 648.50 168.73 648.50 171.23 L 648.50 336.00 Z" fill="#7b9440"/>
<text x="74.00" y="354.00" font-family="ui-monospace, 'SF Mono', 'Cascadia Mono', Menlo, Consolas, monospace" font-size="11" fill="#6b6b6b" text-anchor="middle">0</text>
<text x="218.00" y="354.00" font-family="ui-monospace, 'SF Mono', 'Cascadia Mono', Menlo, Consolas, monospace" font-size="11" fill="#6b6b6b" text-anchor="middle">0.25</text>
<text x="362.00" y="354.00" font-family="ui-monospace, 'SF Mono', 'Cascadia Mono', Menlo, Consolas, monospace" font-size="11" fill="#6b6b6b" text-anchor="middle">0.5</text>
<text x="506.00" y="354.00" font-family="ui-monospace, 'SF Mono', 'Cascadia Mono', Menlo, Consolas, monospace" font-size="11" fill="#6b6b6b" text-anchor="middle">0.75</text>
<text x="650.00" y="354.00" font-family="ui-monospace, 'SF Mono', 'Cascadia Mono', Menlo, Consolas, monospace" font-size="11" fill="#6b6b6b" text-anchor="middle">1</text>
<text x="107.80" y="132.14" font-family="Inter, -apple-system, 'Segoe UI', 'Helvetica Neue', Arial, sans-serif" font-size="11.5" fill="#1a1a1a" text-anchor="start">confident “no”</text>
<text x="635.60" y="157.15" font-family="Inter, -apple-system, 'Segoe UI', 'Helvetica Neue', Arial, sans-serif" font-size="11.5" fill="#1a1a1a" text-anchor="end">confident “yes” — the review queue</text>
<text x="362.00" y="273.74" font-family="Inter, -apple-system, 'Segoe UI', 'Helvetica Neue', Arial, sans-serif" font-size="11" fill="#6b6b6b" text-anchor="middle">few documents left ambiguous</text>
<text x="362.00" y="380.00" font-family="Inter, -apple-system, 'Segoe UI', 'Helvetica Neue', Arial, sans-serif" font-size="12" fill="#6b6b6b" text-anchor="middle">Model probability score</text>
<text x="20.00" y="82.00" font-family="Inter, -apple-system, 'Segoe UI', 'Helvetica Neue', Arial, sans-serif" font-size="12" fill="#6b6b6b" text-anchor="start">Share of documents per bin (log scale)</text>
<text x="28.00" y="404.00" font-family="ui-monospace, 'SF Mono', 'Cascadia Mono', Menlo, Consolas, monospace" font-size="10" fill="#9a9a94" text-anchor="start">Recreated with representative synthetic data — labels generalized for confidentiality.</text>
</svg>
