<svg xmlns="http://www.w3.org/2000/svg" viewBox="0 0 640 520" width="640" height="520" role="img" aria-label="ROC curve for a representative category classifier hugging the top-left corner with area under the curve of approximately 0.999">
<rect x="0.50" y="0.50" width="639.00" height="519.00" fill="#ffffff" rx="10" stroke="#e0e0dc" stroke-width="1"/>
<text x="28.00" y="40.00" font-family="Inter, -apple-system, 'Segoe UI', 'Helvetica Neue', Arial, sans-serif" font-size="16" fill="#1a1a1a" text-anchor="start" font-weight="600">Representative category classifier — ROC</text>
<text x="28.00" y="61.00" font-family="Inter, -apple-system, 'Segoe UI', 'Helvetica Neue', Arial, sans-serif" font-size="12.5" fill="#6b6b6b" text-anchor="start">Held-out evaluation of one of the ten n-gram Logistic Regression models</text>
<line x1="84.00" y1="355.20" x2="408.00" y2="355.20" stroke="#edece8" stroke-width="1"/>
<line x1="148.80" y1="420.00" x2="148.80" y2="96.00" stroke="#edece8" stroke-width="1"/>
<line x1="84.00" y1="290.40" x2="408.00" y2="290.40" stroke="#edece8" stroke-width="1"/>
<line x1="213.60" y1="420.00" x2="213.60" y2="96.00" stroke="#edece8" stroke-width="1"/>
<line x1="84.00" y1="225.60" x2="408.00" y2="225.60" stroke="#edece8" stroke-width="1"/>
<line x1="278.40" y1="420.00" x2="278.40" y2="96.00" stroke="#edece8" stroke-width="1"/>
<line x1="84.00" y1="160.80" x2="408.00" y2="160.80" stroke="#edece8" stroke-width="1"/>
<line x1="343.20" y1="420.00" x2="343.20" y2="96.00" stroke="#edece8" stroke-width="1"/>
<line x1="84.00" y1="96.00" x2="408.00" y2="96.00" stroke="#edece8" stroke-width="1"/>
<line x1="408.00" y1="420.00" x2="408.00" y2="96.00" stroke="#edece8" stroke-width="1"/>
<text x="84.00" y="438.00" font-family="ui-monospace, 'SF Mono', 'Cascadia Mono', Menlo, Consolas, monospace" font-size="11" fill="#6b6b6b" text-anchor="middle">0.0</text>
<text x="76.00" y="424.00" font-family="ui-monospace, 'SF Mono', 'Cascadia Mono', Menlo, Consolas, monospace" font-size="11" fill="#6b6b6b" text-anchor="end">0.0</text>
<text x="148.80" y="438.00" font-family="ui-monospace, 'SF Mono', 'Cascadia Mono', Menlo, Consolas, monospace" font-size="11" fill="#6b6b6b" text-anchor="middle">0.2</text>
<text x="76.00" y="359.20" font-family="ui-monospace, 'SF Mono', 'Cascadia Mono', Menlo, Consolas, monospace" font-size="11" fill="#6b6b6b" text-anchor="end">0.2</text>
<text x="213.60" y="438.00" font-family="ui-monospace, 'SF Mono', 'Cascadia Mono', Menlo, Consolas, monospace" font-size="11" fill="#6b6b6b" text-anchor="middle">0.4</text>
<text x="76.00" y="294.40" font-family="ui-monospace, 'SF Mono', 'Cascadia Mono', Menlo, Consolas, monospace" font-size="11" fill="#6b6b6b" text-anchor="end">0.4</text>
<text x="278.40" y="438.00" font-family="ui-monospace, 'SF Mono', 'Cascadia Mono', Menlo, Consolas, monospace" font-size="11" fill="#6b6b6b" text-anchor="middle">0.6</text>
<text x="76.00" y="229.60" font-family="ui-monospace, 'SF Mono', 'Cascadia Mono', Menlo, Consolas, monospace" font-size="11" fill="#6b6b6b" text-anchor="end">0.6</text>
<text x="343.20" y="438.00" font-family="ui-monospace, 'SF Mono', 'Cascadia Mono', Menlo, Consolas, monospace" font-size="11" fill="#6b6b6b" text-anchor="middle">0.8</text>
<text x="76.00" y="164.80" font-family="ui-monospace, 'SF Mono', 'Cascadia Mono', Menlo, Consolas, monospace" font-size="11" fill="#6b6b6b" text-anchor="end">0.8</text>
<text x="408.00" y="438.00" font-family="ui-monospace, 'SF Mono', 'Cascadia Mono', Menlo, Consolas, monospace" font-size="11" fill="#6b6b6b" text-anchor="middle">1.0</text>
<text x="76.00" y="100.00" font-family="ui-monospace, 'SF Mono', 'Cascadia Mono', Menlo, Consolas, monospace" font-size="11" fill="#6b6b6b" text-anchor="end">1.0</text>
<line x1="84.00" y1="420.00" x2="408.00" y2="420.00" stroke="#e0e0dc" stroke-width="1"/>
<line x1="84.00" y1="420.00" x2="84.00" y2="96.00" stroke="#e0e0dc" stroke-width="1"/>
<line x1="84.00" y1="420.00" x2="408.00" y2="96.00" stroke="#b9b8b2" stroke-width="1.5" stroke-dasharray="5 5"/>
<text x="265.44" y="258.00" font-family="Inter, -apple-system, 'Segoe UI', 'Helvetica Neue', Arial, sans-serif" font-size="11.5" fill="#6b6b6b" text-anchor="start">chance (AUC = 0.5)</text>
<path d="M 84.00 420.00 L 84.00 101.29 L 84.00 101.26 L 84.00 101.24 L 84.00 101.21 L 84.00 101.19 L 84.00 101.17 L 84.00 101.14 L 84.00 101.12 L 84.00 101.09 L 84.01 101.07 L 84.01 101.05 L 84.01 101.02 L 84.01 101.00 L 84.01 100.98 L 84.01 100.95 L 84.01 100.93 L 84.01 100.90 L 84.01 100.88 L 84.01 100.86 L 84.01 100.83 L 84.01 100.81 L 84.01 100.78 L 84.01 100.76 L 84.01 100.74 L 84.01 100.71 L 84.01 100.69 L 84.01 100.67 L 84.01 100.64 L 84.01 100.62 L 84.01 100.59 L 84.02 100.57 L 84.02 100.55 L 84.02 100.52 L 84.02 100.50 L 84.02 100.47 L 84.02 100.45 L 84.02 100.43 L 84.02 100.40 L 84.02 100.38 L 84.02 100.35 L 84.03 100.33 L 84.03 100.31 L 84.03 100.28 L 84.03 100.26 L 84.03 100.24 L 84.03 100.21 L 84.04 100.19 L 84.04 100.16 L 84.04 100.14 L 84.04 100.12 L 84.04 100.09 L 84.05 100.07 L 84.05 100.04 L 84.05 100.02 L 84.05 100.00 L 84.06 99.97 L 84.06 99.95 L 84.06 99.92 L 84.07 99.90 L 84.07 99.88 L 84.07 99.85 L 84.08 99.83 L 84.08 99.80 L 84.09 99.78 L 84.09 99.76 L 84.10 99.73 L 84.10 99.71 L 84.11 99.68 L 84.11 99.66 L 84.12 99.64 L 84.13 99.61 L 84.13 99.59 L 84.14 99.57 L 84.15 99.54 L 84.16 99.52 L 84.16 99.49 L 84.17 99.47 L 84.18 99.45 L 84.19 99.42 L 84.20 99.40 L 84.21 99.37 L 84.22 99.35 L 84.24 99.33 L 84.25 99.30 L 84.26 99.28 L 84.28 99.25 L 84.29 99.23 L 84.31 99.21 L 84.32 99.18 L 84.34 99.16 L 84.36 99.13 L 84.38 99.11 L 84.40 99.09 L 84.42 99.06 L 84.44 99.04 L 84.47 99.01 L 84.49 98.99 L 84.52 98.97 L 84.55 98.94 L 84.58 98.92 L 84.61 98.89 L 84.64 98.87 L 84.67 98.85 L 84.71 98.82 L 84.75 98.80 L 84.79 98.77 L 84.83 98.75 L 84.88 98.73 L 84.92 98.70 L 84.97 98.68 L 85.02 98.65 L 85.08 98.63 L 85.14 98.61 L 85.20 98.58 L 85.26 98.56 L 85.33 98.53 L 85.40 98.51 L 85.48 98.49 L 85.56 98.46 L 85.64 98.44 L 85.73 98.41 L 85.82 98.39 L 85.92 98.37 L 86.02 98.34 L 86.13 98.32 L 86.25 98.29 L 86.37 98.27 L 86.49 98.24 L 86.63 98.22 L 86.77 98.20 L 86.92 98.17 L 87.07 98.15 L 87.24 98.12 L 87.41 98.10 L 87.60 98.08 L 87.79 98.05 L 87.99 98.03 L 88.21 98.00 L 88.44 97.98 L 88.67 97.96 L 88.92 97.93 L 89.19 97.91 L 89.47 97.88 L 89.76 97.86 L 90.07 97.84 L 90.40 97.81 L 90.74 97.79 L 91.10 97.76 L 91.48 97.74 L 91.89 97.72 L 92.31 97.69 L 92.76 97.67 L 93.23 97.64 L 93.72 97.62 L 94.25 97.59 L 94.80 97.57 L 95.38 97.55 L 95.99 97.52 L 96.63 97.50 L 97.31 97.47 L 98.03 97.45 L 98.78 97.43 L 99.57 97.40 L 100.41 97.38 L 101.29 97.35 L 102.22 97.33 L 103.20 97.31 L 104.23 97.28 L 105.32 97.26 L 106.46 97.23 L 107.67 97.21 L 108.94 97.18 L 110.28 97.16 L 111.69 97.14 L 113.18 97.11 L 114.75 97.09 L 116.40 97.06 L 118.14 97.04 L 119.97 97.02 L 121.91 96.99 L 123.94 96.97 L 126.09 96.94 L 128.35 96.92 L 130.73 96.89 L 133.25 96.87 L 135.89 96.85 L 138.68 96.82 L 141.62 96.80 L 144.71 96.77 L 147.97 96.75 L 151.41 96.73 L 155.03 96.70 L 158.85 96.68 L 162.87 96.65 L 167.11 96.63 L 171.57 96.60 L 176.28 96.58 L 181.23 96.56 L 186.46 96.53 L 191.96 96.51 L 197.76 96.48 L 203.87 96.46 L 210.31 96.44 L 217.10 96.41 L 224.25 96.39 L 231.79 96.36 L 239.73 96.34 L 248.09 96.31 L 256.91 96.29 L 266.20 96.27 L 275.99 96.24 L 286.30 96.22 L 297.17 96.19 L 308.62 96.17 L 320.69 96.15 L 333.41 96.12 L 346.81 96.10 L 360.93 96.07 L 375.80 96.05 L 391.48 96.02 L 408.00 96.00" fill="none" stroke="#7b9440" stroke-width="2.5" stroke-linejoin="round" stroke-linecap="round"/>
<circle cx="85.30" cy="98.55" r="4.5" fill="#7b9440" stroke="#ffffff" stroke-width="2"/>
<text x="100.20" y="118.68" font-family="Inter, -apple-system, 'Segoe UI', 'Helvetica Neue', Arial, sans-serif" font-size="12.5" fill="#1a1a1a" text-anchor="start" font-weight="600">Logistic Regression — held-out test set</text>
<text x="100.20" y="133.26" font-family="ui-monospace, 'SF Mono', 'Cascadia Mono', Menlo, Consolas, monospace" font-size="12" fill="#6b6b6b" text-anchor="start">ROC AUC ≈ 0.999</text>
<text x="246.00" y="464.00" font-family="Inter, -apple-system, 'Segoe UI', 'Helvetica Neue', Arial, sans-serif" font-size="12" fill="#6b6b6b" text-anchor="middle">False positive rate</text>
<text x="30" y="258" font-family="Inter, -apple-system, 'Segoe UI', 'Helvetica Neue', Arial, sans-serif" font-size="12" fill="#6b6b6b" text-anchor="middle" transform="rotate(-90 30 258)">True positive rate</text>
<text x="28.00" y="504.00" font-family="ui-monospace, 'SF Mono', 'Cascadia Mono', Menlo, Consolas, monospace" font-size="10" fill="#9a9a94" text-anchor="start">Recreated with representative synthetic data — labels generalized for confidentiality.</text>
</svg>
